Power Shift (2011)

***

Step out of your comfort zone and journey down the rabbit hole into a deeper realm where you will experience ten transformational awakenings. These awakenings are based on the teachings of Einstein, Tesla, Tolle, Chopra, Dyer, Wilcox, Icke and other science and spirituality visionaries. 

***

Testimonials

    "This movie should be required viewing. It took me to new places. Man it was awesome! I'm going to watch it again." - Matt Arnott"

    "After watching Power Shift, I now know what it means to be awake." - Frank Patterson

    "Brilliant! I cried, laughed and loved it. I'm 100% with you!" - Katya Manjossova

***

Information:

Power Shift

Amenstop Productions
2 DVD set
2 hrs. 32 min. 2011

Type: DVD - Rip


1 DVD:

General
Complete name                            : D:\installed\DVDConverterPortable\AVI\Новая папка\Power_Shift_part_1.avi
Format                                   : AVI
Format/Info                              : Audio Video Interleave
File size                                : 600 MiB
Duration                                 : 1h 19mn
Overall bit rate                         : 1 058 Kbps
Writing application                      : Lavf52.82.0

Video
ID                                       : 0
Format                                   : MPEG-4 Visual
Format profile                           : Simple@L3
Format settings, BVOP                    : No
Format settings, QPel                    : No
Format settings, GMC                     : No warppoints
Format settings, Matrix                  : Default (H.263)
Codec ID                                 : FMP4
Duration                                 : 1h 19mn
Bit rate                                 : 730 Kbps
Width                                    : 720 pixels
Height                                   : 480 pixels
Display aspect ratio                     : 3:2
Frame rate                               : 29.970 fps
Standard                                 : NTSC
Color space                              : YUV
Chroma subsampling                       : 4:2:0
Bit depth                                : 8 bits
Scan type                                : Progressive
Compression mode                         : Lossy
Bits/(Pixel*Frame)                       : 0.070
Stream size                              : 414 MiB (69%)
Writing library                          : XviD 1.2.1 (UTC 2008-12-04)

Audio
ID                                       : 1
Format                                   : AC-3
Format/Info                              : Audio Coding 3
Mode extension                           : CM (complete main)
Codec ID                                 : 2000
Duration                                 : 1h 18mn
Bit rate mode                            : Constant
Bit rate                                 : 320 Kbps
Channel(s)                               : 2 channels
Channel positions                        : Front: L R
Sampling rate                            : 48.0 KHz
Bit depth                                : 16 bits
Compression mode                         : Lossy
Stream size                              : 180 MiB (30%)
Alignment                                : Aligned on interleaves
Interleave, duration                     : 32 ms (0.97 video frame)
Interleave, preload duration             : 32 ms

2 DVD:

General
Complete name                            : D:\installed\DVDConverterPortable\AVI\Новая папка\Power_Shift_part_2.avi
Format                                   : AVI
Format/Info                              : Audio Video Interleave
File size                                : 556 MiB
Duration                                 : 1h 15mn
Overall bit rate                         : 1 026 Kbps
Writing application                      : Lavf52.82.0

Video
ID                                       : 0
Format                                   : MPEG-4 Visual
Format profile                           : Simple@L3
Format settings, BVOP                    : No
Format settings, QPel                    : No
Format settings, GMC                     : No warppoints
Format settings, Matrix                  : Default (H.263)
Codec ID                                 : FMP4
Duration                                 : 1h 15mn
Bit rate                                 : 698 Kbps
Width                                    : 720 pixels
Height                                   : 480 pixels
Display aspect ratio                     : 3:2
Frame rate                               : 29.970 fps
Standard                                 : NTSC
Color space                              : YUV
Chroma subsampling                       : 4:2:0
Bit depth                                : 8 bits
Scan type                                : Progressive
Compression mode                         : Lossy
Bits/(Pixel*Frame)                       : 0.067
Stream size                              : 378 MiB (68%)
Writing library                          : XviD 1.2.1 (UTC 2008-12-04)

Audio
ID                                       : 1
Format                                   : AC-3
Format/Info                              : Audio Coding 3
Mode extension                           : CM (complete main)
Codec ID                                 : 2000
Duration                                 : 1h 14mn
Bit rate mode                            : Constant
Bit rate                                 : 320 Kbps
Channel(s)                               : 2 channels
Channel positions                        : Front: L R
Sampling rate                            : 48.0 KHz
Bit depth                                : 16 bits
Compression mode                         : Lossy
Stream size                              : 172 MiB (31%)
Alignment                                : Aligned on interleaves
Interleave, duration                     : 32 ms (0.97 video frame)
Interleave, preload duration             : 32 ms





